<svg width="25" height="24" viewBox="0 0 25 24" fill="none" xmlns="http://www.w3.org/2000/svg">
<path d="M3.69427 14.9518L4.40194 14.776L3.69427 14.9518ZM3.69427 8.82431L4.40194 9.00004L3.69427 8.82431ZM21.4171 8.82432L22.1248 8.6486L21.4171 8.82432ZM21.4171 14.9517L20.7094 14.776L21.4171 14.9517ZM15.5847 20.3065L15.427 19.5946L15.427 19.5946L15.5847 20.3065ZM9.52666 20.3065L9.68441 19.5946L9.68441 19.5946L9.52666 20.3065ZM9.52666 3.46961L9.68441 4.1815L9.68441 4.1815L9.52666 3.46961ZM15.5847 3.46961L15.7425 2.75771L15.7425 2.75771L15.5847 3.46961ZM9.0854 20.2087L8.92765 20.9206L8.92765 20.9206L9.0854 20.2087ZM16.026 20.2087L16.1837 20.9206L16.1837 20.9206L16.026 20.2087ZM16.026 3.56738L15.8682 4.27928L15.8682 4.27928L16.026 3.56738ZM9.0854 3.56738L8.92765 2.85548L8.92765 2.85548L9.0854 3.56738ZM9.23761 9.69068C8.90994 9.45658 8.45453 9.53243 8.22043 9.8601C7.98632 10.1878 8.06218 10.6432 8.38985 10.8773L9.23761 9.69068ZM11.3128 12.0695L11.7367 11.4762L11.7367 11.4762L11.3128 12.0695ZM13.7985 12.0695L14.2224 12.6628L14.2224 12.6628L13.7985 12.0695ZM16.7215 10.8773C17.0492 10.6432 17.1251 10.1878 16.891 9.8601C16.6568 9.53243 16.2014 9.45658 15.8738 9.69068L16.7215 10.8773ZM9.24315 4.27928L9.68441 4.1815L9.36892 2.75771L8.92765 2.85548L9.24315 4.27928ZM15.427 4.18151L15.8682 4.27928L16.1837 2.85548L15.7425 2.75771L15.427 4.18151ZM15.8682 19.4968L15.427 19.5946L15.7425 21.0184L16.1837 20.9206L15.8682 19.4968ZM9.68441 19.5946L9.24314 19.4968L8.92765 20.9206L9.36892 21.0184L9.68441 19.5946ZM4.40194 14.776C3.93101 12.8795 3.93101 10.8966 4.40194 9.00004L2.98659 8.64859C2.45835 10.7759 2.45835 13.0002 2.98659 15.1275L4.40194 14.776ZM20.7094 9.00004C21.1804 10.8966 21.1804 12.8795 20.7094 14.776L22.1248 15.1275C22.653 13.0002 22.653 10.7759 22.1248 8.6486L20.7094 9.00004ZM15.427 19.5946C13.5357 20.0136 11.5757 20.0136 9.68441 19.5946L9.36892 21.0184C11.468 21.4835 13.6434 21.4835 15.7425 21.0184L15.427 19.5946ZM9.68441 4.1815C11.5757 3.76243 13.5357 3.76243 15.427 4.18151L15.7425 2.75771C13.6434 2.29258 11.468 2.29258 9.36892 2.75771L9.68441 4.1815ZM9.24314 19.4968C6.86456 18.9697 4.98923 17.1412 4.40194 14.776L2.98659 15.1275C3.70724 18.0297 6.00851 20.2737 8.92765 20.9206L9.24314 19.4968ZM16.1837 20.9206C19.1029 20.2737 21.4041 18.0297 22.1248 15.1275L20.7094 14.776C20.1222 17.1411 18.2468 18.9697 15.8682 19.4968L16.1837 20.9206ZM15.8682 4.27928C18.2468 4.80634 20.1222 6.63491 20.7094 9.00004L22.1248 8.6486C21.4041 5.74639 19.1029 3.50232 16.1837 2.85548L15.8682 4.27928ZM8.92765 2.85548C6.00851 3.50232 3.70724 5.74638 2.98659 8.64859L4.40194 9.00004C4.98923 6.63491 6.86456 4.80634 9.24315 4.27928L8.92765 2.85548ZM8.38985 10.8773L10.889 12.6628L11.7367 11.4762L9.23761 9.69068L8.38985 10.8773ZM14.2224 12.6628L16.7215 10.8773L15.8738 9.69068L13.3746 11.4762L14.2224 12.6628ZM10.889 12.6628C11.886 13.3751 13.2254 13.3751 14.2224 12.6628L13.3746 11.4762C12.8847 11.8262 12.2266 11.8262 11.7367 11.4762L10.889 12.6628Z" fill="#1B1D21"/>
</svg>
