<svg width="24" height="24" viewBox="0 0 24 24" fill="none" xmlns="http://www.w3.org/2000/svg">
<path d="M5.92303 7.94044L5.21903 7.75053L5.21903 7.75053L5.92303 7.94044ZM10.1954 3.45096L10.4211 4.1443L10.4211 4.1443L10.1954 3.45096ZM5.86981 8.13774L6.57381 8.32765L6.57381 8.32765L5.86981 8.13774ZM5.66972 12.3646L6.38852 12.242L6.38852 12.242L5.66972 12.3646ZM5.69297 12.501L4.97417 12.6235L4.97417 12.6235L5.69297 12.501ZM5.73581 12.7198L6.02657 13.3885C6.3466 13.2493 6.52317 12.9029 6.44774 12.5622L5.73581 12.7198ZM6.19451 17.1531L6.34068 16.4388L6.34068 16.4388L6.19451 17.1531ZM6.55973 17.2279L6.70591 16.5135L6.70591 16.5135L6.55973 17.2279ZM17.6628 17.2279L17.8089 17.9422L17.8089 17.9422L17.6628 17.2279ZM18.028 17.1531L17.8818 16.4388L17.8818 16.4388L18.028 17.1531ZM18.4854 12.7192L17.7744 12.5578C17.6967 12.8997 17.8734 13.2485 18.1951 13.3881L18.4854 12.7192ZM18.534 12.4747L19.2528 12.5973L19.2528 12.5973L18.534 12.4747ZM18.5586 12.3302L17.8398 12.2077L17.8398 12.2077L18.5586 12.3302ZM18.3782 8.16701L17.6727 8.35128L17.6727 8.35129L18.3782 8.16701ZM18.307 7.89454L19.0125 7.71026L19.0125 7.71026L18.307 7.89454ZM14.1572 3.45737L14.3867 2.76529L14.3867 2.76529L14.1572 3.45737ZM14.8386 18.3516L15.5511 18.5068L14.8386 18.3516ZM14.7681 18.6753L15.4806 18.8304L15.4806 18.8304L14.7681 18.6753ZM9.45435 18.6753L10.1668 18.5201L10.1668 18.5201L9.45435 18.6753ZM9.38388 18.3516L8.67141 18.5068L8.67141 18.5068L9.38388 18.3516ZM12.9716 20.5135L12.802 19.8043L12.802 19.8043L12.9716 20.5135ZM12.7812 20.559L12.9508 21.2682L12.9508 21.2682L12.7812 20.559ZM11.4413 20.559L11.611 19.8499L11.611 19.8499L11.4413 20.559ZM11.2508 20.5135L11.0812 21.2226L11.0812 21.2226L11.2508 20.5135ZM9.37247 17.6543L9.44459 16.9287L9.37247 17.6543ZM6.62703 8.13035C7.13402 6.25089 8.57446 4.74555 10.4211 4.1443L9.96961 2.75762C7.65815 3.51021 5.85531 5.39178 5.21903 7.75053L6.62703 8.13035ZM6.57381 8.32765L6.62703 8.13035L5.21903 7.75053L5.16581 7.94783L6.57381 8.32765ZM6.38852 12.242C6.16644 10.9392 6.22968 9.60338 6.57381 8.32765L5.16581 7.94783C4.76671 9.4273 4.69339 10.9763 4.95092 12.4871L6.38852 12.242ZM6.41177 12.3784L6.38852 12.242L4.95092 12.4871L4.97417 12.6235L6.41177 12.3784ZM6.44774 12.5622C6.43431 12.5015 6.42231 12.4403 6.41177 12.3784L4.97417 12.6235C4.98872 12.7089 5.00531 12.7935 5.02388 12.8774L6.44774 12.5622ZM5.06263 14.8644C5.06263 14.2028 5.45953 13.635 6.02657 13.3885L5.44505 12.0511C4.36194 12.522 3.6043 13.6046 3.6043 14.8644H5.06263ZM6.34068 16.4388C5.59921 16.2871 5.06263 15.6306 5.06263 14.8644H3.6043C3.6043 16.3188 4.6238 17.576 6.04833 17.8675L6.34068 16.4388ZM6.70591 16.5135L6.34068 16.4388L6.04833 17.8675L6.41355 17.9422L6.70591 16.5135ZM17.8818 16.4388L17.5166 16.5135L17.8089 17.9422L18.1742 17.8675L17.8818 16.4388ZM19.1599 14.8644C19.1599 15.6306 18.6233 16.2871 17.8818 16.4388L18.1742 17.8675C19.5987 17.576 20.6182 16.3188 20.6182 14.8644H19.1599ZM18.1951 13.3881C18.7626 13.6345 19.1599 14.2025 19.1599 14.8644H20.6182C20.6182 13.604 19.8598 12.521 18.7758 12.0504L18.1951 13.3881ZM17.8152 12.3522C17.8034 12.4215 17.7898 12.49 17.7744 12.5578L19.1965 12.8807C19.2177 12.7871 19.2365 12.6926 19.2528 12.5973L17.8152 12.3522ZM17.8398 12.2077L17.8152 12.3522L19.2528 12.5973L19.2774 12.4527L17.8398 12.2077ZM17.6727 8.35129C18.0015 9.61003 18.0585 10.9249 17.8398 12.2077L19.2774 12.4527C19.5309 10.9659 19.4648 9.44183 19.0837 7.98273L17.6727 8.35129ZM17.6015 8.07882L17.6727 8.35128L19.0837 7.98273L19.0125 7.71026L17.6015 8.07882ZM13.9276 4.14946C15.7342 4.74877 17.1178 6.22693 17.6015 8.07882L19.0125 7.71026C18.4046 5.38272 16.6644 3.52085 14.3867 2.76529L13.9276 4.14946ZM10.4211 4.1443C11.5584 3.774 12.7956 3.77395 13.9276 4.14946L14.3867 2.76529C12.956 2.29067 11.3996 2.29201 9.96961 2.75762L10.4211 4.1443ZM14.1261 18.1965L14.0557 18.5201L15.4806 18.8304L15.5511 18.5068L14.1261 18.1965ZM10.1668 18.5201L10.0964 18.1965L8.67141 18.5068L8.74188 18.8304L10.1668 18.5201ZM12.802 19.8043L12.6115 19.8499L12.9508 21.2682L13.1413 21.2226L12.802 19.8043ZM11.611 19.8499L11.4205 19.8043L11.0812 21.2226L11.2717 21.2682L11.611 19.8499ZM12.6115 19.8499C12.2826 19.9285 11.9399 19.9285 11.611 19.8499L11.2717 21.2682C11.8237 21.4002 12.3988 21.4002 12.9508 21.2682L12.6115 19.8499ZM8.74188 18.8304C8.99895 20.011 9.90697 20.9418 11.0812 21.2226L11.4205 19.8043C10.7937 19.6544 10.3054 19.1564 10.1668 18.5201L8.74188 18.8304ZM14.0557 18.5201C13.9171 19.1564 13.4288 19.6544 12.802 19.8043L13.1413 21.2226C14.3155 20.9418 15.2235 20.011 15.4806 18.8304L14.0557 18.5201ZM15.5511 18.5068C15.6225 18.1787 15.6263 17.8442 15.5672 17.5225L14.1329 17.7861C14.1575 17.9202 14.1559 18.0596 14.1261 18.1965L15.5511 18.5068ZM17.5166 16.5135C16.6096 16.6991 15.6955 16.8375 14.7779 16.9287L14.9221 18.3799C15.8894 18.2838 16.8529 18.1379 17.8089 17.9422L17.5166 16.5135ZM14.7779 16.9287C13.0045 17.105 11.218 17.105 9.44459 16.9287L9.30034 18.3799C11.1697 18.5657 13.0528 18.5657 14.9221 18.3799L14.7779 16.9287ZM9.44459 16.9287C8.52701 16.8375 7.61291 16.6991 6.70591 16.5135L6.41355 17.9422C7.36959 18.1379 8.33312 18.2838 9.30034 18.3799L9.44459 16.9287ZM10.0964 18.1965C10.0665 18.0596 10.065 17.9202 10.0896 17.7861L8.6553 17.5225C8.5962 17.8442 8.59996 18.1787 8.67141 18.5068L10.0964 18.1965Z" fill="#1B1D21"/>
</svg>
